<mxfile host="app.diagrams.net" agent="Mozilla/5.0 (Windows NT 10.0; Win64; x64) AppleWebKit/537.36 (KHTML, like Gecko) Chrome/128.0.0.0 Safari/537.36 Edg/128.0.0.0" version="24.7.10">
  <diagram name="第 1 页" id="-zEDVfqFRQISbP_z6SE_">
    <mxGraphModel dx="784" dy="1135" grid="1" gridSize="10" guides="1" tooltips="1" connect="1" arrows="1" fold="1" page="1" pageScale="1" pageWidth="827" pageHeight="1169" math="0" shadow="0">
      <root>
        <mxCell id="0" />
        <mxCell id="1" parent="0" />
        <mxCell id="iaX_U97VyxdjdcJAwhCC-28" value="" style="rounded=1;whiteSpace=wrap;html=1;" vertex="1" parent="1">
          <mxGeometry x="160" y="360" width="570" height="160" as="geometry" />
        </mxCell>
        <mxCell id="iaX_U97VyxdjdcJAwhCC-9" value="" style="rounded=0;whiteSpace=wrap;html=1;" vertex="1" parent="1">
          <mxGeometry x="180" y="370" width="120" height="140" as="geometry" />
        </mxCell>
        <mxCell id="iaX_U97VyxdjdcJAwhCC-16" value="" style="shape=image;verticalLabelPosition=bottom;verticalAlign=top;imageAspect=0;aspect=fixed;image=data:image/png,iVBORw0KGgoAAAANSUhEUgAAAcYAAAGlCAYAAABgAlbdAAAAIGNIUk0AAHomAACAhAAA+gAAAIDoAAB1MAAA6mAAADqYAAAXcJy6UTwAAAAGYktHRAD/AP8A/6C9p5MAAAAJcEhZcwAAITgAACE4AUWWMWAAAAAHdElNRQfnAxUXGTaqIdWTAAAEInpUWHRSYXcgcHJvZmlsZSB0eXBlIHhtcAAAWIXtWcty4zgMvOMr9hMoggSlz5H1uG3VHOfztxuSbUmmk7XnMEqVo7IUkQTQ3QQJxpHf//6Sf/CjpiY66FzaEqzB28VySTFYtGzFOpt0jHGaL5fLHCPaO0tsyUVzGjWksYSkGNtaJ6ktfYFh1tKnKSfDEw5VYRSjzjrpUFrtS2sws5GhrImB7zbYVJR9OkqMwJJsJgrtl47bcODQKfRwFTHGtM8xpWQHN94nhGptSbiC9jCdi//EqWBUnGzGwBJnbbTjhd+CRtwj7uPiBE+VAiUYvbRxZAT271EAAkQB5WhdCRjbAf8EVGs/GEWbpYAEUVHMLWAM0gragPHRhjtSjsM9CwwzNSEu4AGFOOmqjg7urjdzsxG4k064B8g+AJmyZUEojOIQh8X70ezqjFhAAeag2YKsB7pNggqamm0Th+qUupR50f2+Z9uS9WodZ/kq3oqwKvY2eGpskAV+HU8MORXmGeRn5l+dQMuwzFxa5jzDkYtWFrG3hlAOFDwxbhOO7AdiN0Tm6CUGveSQcddOkGQXJFvgXPHJlMspdRQIbZHpx8RU3BSecGXYPGgn2yZyXajeZvCpPqu2aMEHKSRH0aqaFRIG2RaqTHCdXYBhfUM3MzvaxcXz7NnK95p6spOvh6PGRUXMYohWUaMuhlzVuLPdKKCeXT3C6J7yPRWvLfKogu1UsJsKiwg1hHyXewNnCEYhBl/IDbonbrdWnhlvbDupS1u+lLbsE9PDyFdxsBFNafoeD9NXcpV1fYU/mwK2C4yZt9mhz8ddpr7JZC5h6GnML0qAnVWohFWz5QC/wVLpsMNjT0g0LjCPd2v5xhzDUOcaz3ls8SBV8OnQ2+yDS8089153WzooHeAHEucs4V192X69+h+FfdRvszx2O4Pct4bXa9m2lMmu+AY3VBurFW3t81SkyMmzPy01TrzIoVZ5vdf1VJJZ4TgnnCkWQN8jw7XabQLeyobsy1xaXb5eAOT1LexhnTk+2QN8hu9Ax1XyEL47MD2ESJQVZNgKWh+8jt055ZOrD9TAMS20YGL4LHW2W4tOxahmI+VhHvz81jnKF6qd3MpdzdVeGdQZbPV5Uc0r7MZOHocc8GVPvaNOScM+vDwd+nRV1ReVvL6qdgdEbjHGHqmfaLldccO4nxUZjCcnP8lxAbmL9aiIxSPrWXHxzAiz1zSm4pDnWyYpS1SevfpGX4FOLkPdHJcT25sujhrKMxE3252f9lfThz8mFHrykuXx59ffcxT6syF629EzKj+Q2v+l8gOovUvlfNSOTP4+orcdfTcpP4jaq/l1Ymp/ulTOQ+3K5DyI3nb0KZBnpPYpkCek9imQZ6T2KZAnpPYpkGekxu8AKv+l9C9m+J1IKcs/GOU/bFUWEyahticAAAAQY2FOdgAABywAAAlIAAABKAAAA9ARc8PAAABJCElEQVR42u3dfVjb530v/jexzKN4kIWNMcI0osiuXUOGcI3d1Fmo1J4eJb2cJoJsSbym5Uipd7baPUmltXO7xm0ParPa2VndSD+uOnWTLaAk9mnC+lulkMV1/VAjN+DZC1ApwRbGOGAZEA8i2Jw/sFSwwUYg0Ff6vl/XleuKjb4CfyR4c9/f+/7cCePj4+MgimNmsxkWiwUajYbFIIpTPp8PLpcLDodj3t/rEpaTxMLhcLAIRHHK6XRCq9VG5LnuYjmJiIj+hMFIREQ0CYORiIhoEgYjERHRJAxGIiKiSRiMREREkzAYiYiIJmEwEhERTcIN/kSz5HK5YLfbAQBKpRIGg4FFIYpDDEaiO3C5XDCbzfB4PFAqlfB4PPB4PLDb7eymQxSHGIxEt+Hz+aDVaqHRaNDU1ASZTAafz4eysjIolUoWiCgOMRiJbqOyshIAYLVaIZPJAAAymQxut5vFIYpTXHxDNAOn0wmn0wmDwRAKRSKKfwxGohk4nU4A4HFVRCLDYCSagcvlAnBrMNpsNpjNZhaIKE4xGInCZDQaQ6PJIKfTCZ/PF9bz2O12GI1GaLVaVFZWhoKYiKKLwUh0B5MDL7iPcfIo0uVyQavVThuMTqcTNptt2uc1Go2QyWRQq9XweDwRO2SViOaHwUg0A71eD+BPI0SbzQaj0QgAoa0aHo8HFosFwPRTrE6nMxSmN7ty5QpqampQU1MDvV4f9oiTiBYGt2sQzcBgMMDj8cBms8Fut0OtVkOj0YT+P8jlcoX+PNfVq06nk4t8iASCwUh0G8ERXZBWqw1NfwJ/Gjnq9XqYTCYAf9rmAUyEpsfjCY0kNRrNLQFoNBrhcrnYRYdIIDiVSjQNj8cDo9E4ZXrT5/PB6XSGpliDj/N4PFNGkB6PBy6XKxSKPp9vyp8nP19ZWVmotdzk5yCi6OGIkWgadrs9tGjGarUCACwWC2QyWWhkCEy/pcNgMIQajJvN5mlHg06nE5WVlVCr1XC73WwgQCQgDEaiaZhMptD9xWD4+Xw+WK3WKT1Sgx+z2+2QyWSzuk9ot9tRWVkJjUYDk8kUeg61Wi3ogOz3B3Cy5TzOeboBAIqcTGwqXg1FTibfMBRXGIxEM7BarTAYDKHp1OlCz2AwhE7f0Ov1tzxGo9Hc0mzc5/OFHhdc0QpM3M8U4nRqvz+A535xBL9qPDvtx1cuz8BPnnkA6wpX8E1DcSFhfHx8nGWgeGY2m2GxWMC3evhOtpzH3z3/G1y56kdqZi6WJmcgMSUDAHBtLIDA4BUM9V3C+PUxPPZgKZ758lYWjaLC6XRCq9XC4XDMe4U3R4xENK2TLedh/N7rWCJJQmbOmlAgBi2RJCE1Mxcp6csx0NuBl984DQAMR4p5XJVKRNP61j/9BkskSZCtWndLKE6WcJcEGcsLkZy+HC+/cRonW86zeBTTGIxEdIvnXzqKXp8faTIFEu6a3cSS9MZj/3ftOywgxTQGIxHdou7XLUhKW4aktGWzvibhLgmkMgU+6OzlqJFiGoORiKY4576MoZFRJCZnhH1tcvpyAMAJBiPFMAYjEU0RHO0lpc1tT2ViSgbefe8SC0kxi8FIRFP0D44AwKzvLU4n8NF1FpJiFoORiKbISEsGMLFPca6SlvJHC8UuvnuJaIpNxasBAB8N98/p+tHhftyzdiULSTGLwUhEU6wrXIHU5ESMjoQfjCMDHwIAym+EK1EsYjAS0S2qvlCMwOAVBAavzPqa8etj8Pu8+FiePDTqJIpFDEYiusXXH78X+bnLMOjzYvz62Kyu8d947N9V38cCUkxjMBLRtP7e8Oe4NhaA7+I5jN7mfuP49TH0f+jG0sQ0/Lf71RwtUsxjMBLRtDYVr4b1u19CVvpS9HW3YtDnnRKQ18YCGOrrQq/3DAKDV/DpYjnGly4TccUoXjAYiWhGm4pX49C+J/DFivUY6utCX3cr+rpbccXbgiveFgz6vLhnzUr8y4/+EjX/8zMAgIYT3NxPsY3HThHRbWVIk/DsX2vx7F9r4TjWjteOXsby9HHc8/FMbCpeDUVOZuix1boC7DnYCl05t2tQ7GIwEtGsabcUocOXiNKiTJSqsm75eJFCitKiLNQ1elFVoWDBKCZxKpWIIqqqIg8NJ7rhHx5jMSgmccRIRBGVK0/G1pJsvNLYiWpdAQuyiPr9AZxsOY9znm4AE+39NhWvxrrCFSxOGBiMRBRxj1bkYcfeZujKc5ArT2ZBFli/P4CfHzqFFw83TfvxVSsy8d2vfZZbaWaJwUhEESdNkUBXnoO6xk7s1BeyIAvonPsynn7uTVy83A/NlrXQblkLZX42AGBwKIDj774Px7H3YPze6/jytjJ85aGNyJAmsXC3wWAkogVRVaHA9h+60O71o0ghZUEWwDn3ZfzlN/8FOfJ07N7xBRSvyZvy8bTUJGi2rMXme+7G4bda8OLhJnR29+HHT+tYvNvg4hsiWjBVFXmobehgIRbIsz9zIi01CZant90SipOlpSbhsQc3YpumBI7j7XAca2fxboPBSEQLJrif8XTbVRYjwg4casJ771/G4w9uRFrq7KZGH3twI5T52Xj2BSf6/YE4r9DcMRiJaEFV3c9R40Kw/+YMitfkQbNlbVjXPfbgRgwMBuA43sYizoDBSEQLqlSVhfRUCVvFRZC3uw8XL/dhg2pV2NcWr8lDWmoSzv6xm4WcAYORiBbczkcKUdfYyUJEyMmW8wBw2/uKt7P5nrtxouUCCzkDBiMRLbhceTJKi7I4pRoh3u4+AAhtywiXNDUJFy/3sZAzYDAS0aKofqAAR5p72CouAoKN2z0XeuZ0fXdPP1atyGQhZ8BgJKJFIU2RhFrF0fxoN6sAAC2tc6tlS9tFlBfns5AzYDAS0aJ5tCIPDccvoat3hMWYhwxpEtbevQJn2i6GfW1LaycGhwJY//EcFnIGDEYiWjTSFAmqHyjgQpwI+PynVWhp7cRhZ/OsrxkcCsBWdxSrVmSGRp10KwYjES0qXflKnG6/yk3/8/TkQ2X41IZ8HH6rZdb3Gg+/1YLu3gF892ufZb/U22AwEtGiq9YVoO5tjhrnwz88huxVa5CUocCz+3+N4+++P+NjB4cC+MmBt/DWH/rwuc8U85SNO2AwEtGi21oysc2Ao8a5OdLcgx17m6HMS8c/f2MT8nMy8ZMDb+EnB97C8Xffx+DQRLs3z4UeHHY246/31OP4u+9jfeFyPHB/MQt4Bzxdg4iiour+POx71Y2D31KzGLPU1TuCfa+6AQAW4/rQWZevPPeXeP6lo3j1N2emHTl+QrkCu5/S4EzHKNq8g6FfTGh6DEYiiopSVRZKi7LQcOJSqNk4zayu0YuGE93QleegqkJxy8e//vi9+Prj9+Jky3mcuNEZR5GTiU3Fq0P7HkeuXUXDCbaCuxMGIxFFTVVFHnbsbcZ9JdmQpvDH0XSCo0RpimTKKHEmm4pXz3gPUZUv5b3dWeA7kYiiJleeDN3mlXilsRPVugIW5Ca1DR1oOH4Ju/SFEZn+lKZI0HbBz8LeARffEFFUPVqRx1ZxN2n3+rFjbzO6ekfwy2+rI3pPUJUvZYOFO+CIkYiiKtgqrvbNDuzUF4q6Fv7hMbzS2IkjzT3Y+UghSlVZEf8cucuS0dU7cscpWTHjiJGIou7Rijycbr8q6pHM6bar2LF3oovN/l0lCxKKACBNlaDdy+nU22EwElHUSVMkqKrIE+WxVP7hMdQ2dGDfq27sfKQQ1bqCBV2IVFqUiYHha3zT3QaDkYgEQVe+El29I6La9B/cqA8AB7+lXrBR4mTpHDHeEe8xEpFgBFvFLUZARJN/eAx77W509Y5g9/Y1KFJIF+1zFym4+OZOOGIkIsEIBuKR5p64/TcGR4m58mTs31WyqKEYxD2jt8fqEJGgVOsKsOdga9y1LZupnVs05MqTcbrtatyPzOeKwUhEglKkkKK0KAt1jd5pW5/Foju1c1tsufJkdF3hdOpMOJVKRIJTVZGHVxo7Y37Tf1fvCEzWs2jzDsJiXC+YoM+VJ6GrN8A32gwYjEQkOJNbxcWq2oYO7NjbDF15DnZvXyOoDfXBTf40PQYjEQlSsFVcrP0AX8h2bpFSqspiMN4G7zEuErPZzCJEyTvvvMPXIIKa3f34nSwJOcuSFvxzfejuxxNfvY6ytVmCr8vo2HX8V4cfFy4P4eD/t0/wC1sYjDNjMC4Si8XCIvA1oDl66//G1tdbqnpR8F9jsJk4e6beilOpi8hkMmF8fJz/8T/+F6f/mUymmPl5xI3+DEYiIpokPWUJTrf3sRDTYDASEYlQkUIK/xDPwJwOg5GISIS4yX9mDEYiIhHKlSej7QJP2ZgOg5GISKRU+dKY7y60EBiMREQiJU2RcNQ4DQYjEZFI8T7j9BiMREQipVKksZn4NBiMREQiJU2RoN3LqdSbMRiJiESKzcSnx16pMcrj8cDj8UAmk0GtVrMgREQRwhFjjHE6nSgrK0NhYSG0Wi3KyspQVlYGn8/H4hBR2HLlyZxOvQmDMYbYbDZotVro9XqMj4/jypUrUKvV8Hg8cDqdLBARhY3NxG/FqdQY4XQ6YTQaYTKZQh38ZTIZHA5H6P+JiMKVnrIEbd5BQR6oHC0cMcYIm80GALccayOTyRiKRDRnbCZ+KwZjDPB4PLDb7dDr9QxBIoooVb6Um/xvwmCMAR6PBwCgVCpv+Xun08mFN0Q0Z9IUCU63XWUhJmEwxoDgwpqbt2UEF+O4XK6Ifi4GLZG4cD/jVAzGGBAMxODIMWi6wNRqtTAajdM+z+1WrjqdTpjNZmi1WgYjkcjkLktmME7CYIwBweCz2+2h0LJYLHC5XFCr1aH7ji6XCy6XCzKZbNqRn1arnfFzWCwW2O12yGSyW6ZsiSi+SVPZGm4yBmMMUCqVMJlMcLlcWLZsGRISEmC32wFMHS1aLBb4fD64XC5YLJZbRpi343A4oFarodFoWHAikSktysTA8DUW4gbuY4wRNTU1MBgMoTZwHo8HlZWVU0Z3arUaTqcztLcRuHX6dPKfbw5Bl8sFg8HAYhOJTDpHjFMwGGOAx+OBz+eDWq0OBWFwxKjX66c87uawu3n6dPKfx8fHp1zr8XgE33f1nPsyHMfbQn9ep8zBpuLVyJAm8Y1CNEfsfjMVg1HgPB4PCgsLodFoQiNBn88Hm80GvV4/ZcTodDpvGfFNDr+EhIQpf54sOJIU6lSq41g7nn3BiYHB6c+O+/K2MnzloY0MSKI5kqYwDoJYCYEL3l+0WCzQarWh6VKlUgmr1TrlscFpVmAiPMNpBjDdaFMI+v0B7Pvlb/G68z+hzM/G/6i8F8WqVUhLnQjAltZOHH/3fbx4uAnHm8/ju1/TYF3hCr5xiMKUnjqxn7FUlSX6WnDxTQyoqalBfX09lEolfD4fDAYDmpqabgk+tVoNo9GIhISEWW+5MJvNSEhIgMVigdPpREJCgqAakj/93Jt43fmf2KYpgeXpbdh8z92hUASA4jV5MFbdi288+Vl4u/tg/N5r8Hb38U1DFKYiBTvgBHHEGCP0ev2U+4nTaWpqgsvlglKpnHa0ON00ak1NDWpqagT5b37NcQa/P3MBjz24Eds0Jbd97OZ77oYyPxvm5w5j78Gj+MdndHzTEIUhV56Ert4ACwGOGOPO5H2NsWxiCvUoitfk3TEUg3Lk6dBsWYu3TrTDcaydbwaiMHCT/58wGEmQXnOcwcBgAI89uDGs6x57cCNy5Omw/6aFRSQKA9vC/QmDkQTp7B+7kSNPhzI//DPiNv+ZEr8/c4FFJAoTg3ECg5EE6eSZ89iwJm9O125QrZp4jpbzLCRRGFT53M8IMBhJoAYGA5Cmck8i0WLiRv8JDEYiIgo53c7tTgxGEqRPbchHS2vnnK4903YRAPAJZQ4LSRSG0qJM+IfGRF8HBiMJ0uaSAngu9KC7dyDsa1taO7H27hVsD0cUplx5Mjf5g8FIAqXdUoT0tCTY6o6GdZ3z2HvwXOjB5z+tYhEpavYcbMWR5p6Y+7pz5clou8BTNhiMJEiKnEw8rN0Q6oU6G4NDAbz0xils/GQ+nnyojEWkqLmvRI53mnux/Ycu1DV64R+OnelJVb40pr7ehcCWcCRYO5+4Fyeaz8NWdxTdPf237YDjudCDn9WdgCT9Y9i1XdhHZ1H821qSja0l2ejqHUHDiW488QMX7ivJhm5zDooUUkF/7dIUCdou+EXdTJzBSIL23DM6PPszJ15+4xQ8F3qwTVMyZdN/d+8Ajv/Bg5ffOIX0tCSsLy5Cj58TISQMufJkVOsKUK0rQMOJS9hrdwMAdJtzoCtfKdivWez3GRmMJGiKnEzY/uFhPP/SURw41ITj776PHHk6lsnlCAz74bkwcR9HU16E73xNgz9eHMa+V93YWpIt8sqR0OjKV0JXvhLtXj8ajnfjoTdPQrd5JXTlOciVJwvm61Qp0tDmHRT1a8VgpJjw9cfvxZPbNsJxvA3n3Jdx6v27kCu7jgfvuxebileHzmAsVSWhtCgLDScuCfY3chK3IoUUO/VSVD9QgIbjl2CynkWRQor7SuSC+IVOmiJBu1fcC3AYjBQzMqRJeFi7AQ9rAZP1LCzG+6d9XFVFHnbsbcZ9Jdk8lZwES5oiQVWFAlUVCpxuu4qGE92obeiArjwHus0ro/beLVVlYd+rblG/NvypQXEnV54M3eaVeKWxE9W6AhaEBK9UlRU63WLyYp2tJXJRL4KJFgYjxaVHb4waH63I46hxkZ1sOY8TLedxzn0ZGdIklBevxqbi1VDkZLI4d3DzYp26tzsnRpGbcxZtBuSc+zJSE4FDb/8RG9ctF+Xrxp8YFJekKRJsLclG7Zsd2KkvZEEWgeNYO777UweGRkYBAIkpGbj2USB0aPT9mz6O7+3QsiPRLN28WKeusRNbS7IXZLFOvz+Anx86FToHNTElA6dOBXBtLIBVKzLw+U+r8PXH7xVN7RmMFLeqdQXY/kMXunpHBLXqL970+wN47hdH8KvGs5AkpiFjeT4SUzKQcNfEj5ex0UEEBn14++QfcaL5PPaZHsCm4tUs3CwFF+v4h8dCi3Vy5cnQledEZLHOOfdlPP3cm7h4uR+aLWtRmJ+NFfJ0AMDl3gEcf/f9GyvCz+O5Z3SiGEEyGCmuVVXkobahA7u3r2ExFsg3fvwmmv7zAlIzc5EmU9zycUliGiSJaUhKk6H/shvG770O63e/xHAM00yLdbaWZM/5lsHJlvMwfu91pKUmYfeOL6B4mjNQNVvWwnnsPbz0xin8xTP/gn/98V/GfThyJzTFNV35SnT1juB021UWYwE4jrXfNhQnkySmQbZqHRLukuD7tv9g8eahVJWF3dvXwGJcDwB44gcu7LO7w3qf9/sD+N7PnMiRp+OnuyunDcUgzZa1+M6OL+D6OPDsz5xxX18GI8W9al0B6t7uZCEirN8fwHd+6oAkMe2OoRiUcJcE6fICXOi6gudfOhrnFVp4wcU6h76/CUX5aah7uxM79jaj4cSlO/Y7/fmhU7h4uR+GqnuRNotDwZX52dj22WL8/swFvOY4E9d1ZTBS3Asud284cYnFiCDH8TYMj4zOOhSDktKWITElA7/6j/dYxAjSla+Exbgeu7evQfuFQezY24zahg509U7f3u3Fw03QbFl725HizbZpSlC8Jg8/f70prmvJYCRRqNYVoK6Ro8ZIam67hCWSJCSmZIR9bVLqMvT6/PB287T4SMuVJ2OnvhD7d5UgV54Ek/UsTNazU34xPNlyHgCw+Z67w37+DapV6LzcF9evHYORRKFIIUVpURbqGr0sRoS8dbwdS+cQigBC1wW3clDkSVMk0JWvxMFvqVF1fx7aLwxi+w9dqG3oQOOpiWAMZ7QYFLwmGK7xiMFIolFVkYdXGjtFf9ZcpAwOj+Kuu+a2sH2JZOKeVv8gT4tfDKWqLOzUF4YW65xwJ8z5uYKn23DESBQHJreKo/lbviwd18YCc7p2bHTi9AZ2w1n874FqXQEq1o3P+TkGhyZe84y0+N0bzGAkUXm0Ig9HmntmXJBAs/fAfWswOtw/p2uD12k3q1jIKAj+QhI8ti0cLW0XASCu96EyGElUJu675HAhTgSsU+Zg/PoYAoNXwr42MOiDMj+b7eGiJBhqx999P+xrW1o7kZ6WFDrqLR4xGEl0qioUON1+VfRnzs2XdksRli9Lx6DPi/Hrs79vO9TXhbHRQTymK2ERo0SRk4lPbciH49h76O4dmPV1La2dcB57Dw9rN8R1fRiMJErBVnE0P9//Gy2ujQUwePXirB4/NjqI4f5LKF6TF/c/XIXuO1/TYHAogJd/9ftZX/PyG6eQnpaErzy0Ma5rw2AkUdKVrwQAtoqbp6XJGSj8RBmuX/sIfd2ttx05jgx8CP8VLzKX340ffv1zLF6UKXIy8eRDZTj+7vv4yYG3QotqptPdO4A9+38Nz4UefOcpTdxPgbOJOIlW1f0To8b9PAg2bP7hMbzS2IkjzT349vZPovlsMp5/6Sh6vWeQkr4cSWkySBLTbtyD9GF0pB+BwStQ5mdDnpfL1agC8fXH78X4+EQXHM+FHjz2xU+hWLUq1CJucCiA4+++j5feOIW7EiYer91SFPd1YTCSaJWqspD+dicaTlwKjSDpzk63XcW+V93YWpKN/btKIE2RoFRVhk3Fq/GzupP4rcuNob6uKdfIZVL85efK8PXH78VDf3+SRRSQnU/ci80lq/G9n72Fnxx4C8DEJn7/UCC0anXt3Svwna9p4nrBzWQMRhL3D4VHCmGynmUwzoJ/eAx77W509Y5g9/Y1KFJIp3x8XeEK/J9vPYh+fwAnW87jnKcbGWnJ2FS8esoPVFW+lGdkCsym4tX4t589iZMt53Gi5TzOuS8jJSkV95WVQbtZJZpADGIwkqjlypNRWpSF2oYOVOsKWJAZHGnuwV67G7rNK+94tmWGNAnaLUUzTrkVKRiMQrWpeDXPyQQX3xCh+oECHGnuYau4aXT1jmDPwVY0nOjG/l0lEfvl4XQ7m4eTcDEYSfSkKRJsLclmq7ib1DV6YbKehUqRBotxfcRGeKVFmfAP8ZcQEi4GIxEmWsU1HL/EVnGYGCWarGdxur0PFuN6VFUoIvr8ufJkdF1hnUm4eI+RCBOjxuoHJs5s3KkvFG0dahs6cKS5B9W6AmwtyV6Qz5ErT0bbBXYdIuHiiJHoBl35SpxuvyrKTf/tXj927G1GV+8I9u8qWbBQDFLlS3lPlwSLI0aiSap1Bah7uxOlItr0vxijxJtJUyRou+AXVZ0pdnDESDRJMBjEMGo83XYV23/oAoBFGSVOxvuMJGQMRqKbVN2fh32vuuP23+cfHkNtQwf2verGzkcKUa0rgDRlcSePVIo0dPUGBFohEjsGI9FNSlVZKC3KQsOJS3H3bzvddhU79jYDmBglRmsqU5oi4bFfJFgMRqJpVFXkoa6xM24WiPiHx7DnYCtqGzqwe/uaqIwSJytVZXFrDAkWg5FoGrny5LjZ9H+kuQdP/MCFXHky9u8quaXHKRFNJXE6nazCIvnggw/AekdGx399AKeza0E/Rw6u4Z9e9yAHSqQkLYm5Gl3pH8W/nezGSOAa/mLrKixLGoDPlwGZTCaIry9Xnox2r59BTYIj0Wq1rMIiqaurQ11dHQsRqXo+vzifx/nz+KmVw+GARqMRxNcUbCbOYCShkQCAwWCAXq9nNYjilMvlgtlsFtTXlJ6yBG3ewUXdJkI0GxIAkMlkgvktkojEoUghxZHmXhaCBIeLb4goKlT5Um7yJ0FiMBJRVEhTJKLsS0vCx2AkoqgpVWWxmTgJDoORiKImdxmPoCLhYTASUdRIU9kajoSHwUhEUVNalImB4WssBAkKg5GIoiadI0YSIAYjEUVNsPsNkZAwGIkoqqJ5ygfRdBiMRBRV6ancz0jCwmAkoqgqUki5l5EEZV7B6PP5YDabsWzZMiQkJCAhIQFarRY+n4+VJaJZyZUnoc07yEKQYMw5GF0uFwoLC+HxeOBwOOB2u6FWq+F0OmG321lZIpqV3GXJXIBDgjKnu94+nw+VlZVQKpWor68P/X19fT08Hg9P6iCiWStVZaG2oYOFIMGYUzBaLJbQSHEypVIJpVLJqhJRWDhiJCGZ01SqzWaDUqnkyJCIIkKVz/2MJBxhB6PH44HP52MoElHEcKM/CcmcghEAZDLZlL+32WxISEiAxWJhVYkobKfb+1gEEoSI7WN0uVwAALVaHfo7i8UCs9nMKhPRbZUWZbIIJBhhB2Mw+Ox2e2i/osvlCm3RmDzF6nQ6WWEiuqNceTKbiZNghB2MMpkMJpMJHo8HZWVl0Gq1oU39k0NRq9XC6XTCYrFwipWIbitXzgOLSTjmNJVaU1ODpqYm6PV66PX60LaNydOoJpMJAHDlyhWMj4+H/hzP+v0BnGw5j5Mt5/nOIgqTKp+t4UgY5rSP0ePxQK1Wh4LQZrMBmBqMTqcTarX6lkU68ejAoSa88c578FzoCf1dclIiNn4yH1/887XQbiniO43oDqQpErRd8KNUlcViUFSFHYyFhYVQKpVTNvfb7XYolUro9frQ37lcrilBGY/OuS/jW8//Oz7o7IUkMQ2pmblYmpyB8etjGBsdwrFmL37rcuMLp9bh7756HzKkSXzHEc0gV56MrivcskHRF/ZUql6vh9PpRGVlJZxOJ8xmM1wu15TWcMBEMMbzaNFxrB1f2f0qOrr6kLG8ELJV65AmUyAxJQNJacuQJlNgmaIYqZm5+PWRc9B/4yX0+wN8xxHNQKVIQ1cvv0co+sIOxpqaGlitVvh8PlgsFvh8PjQ1Nd0yOlSr1bDZbCgrK4u71an9/gC+81MHxsaXQrZqHZLSls342DSZApk5a9DdO4Bv/9Nv+I4jmoE0RcKVqSQIc7rHaDAYYDAYbvuY+vr6afc2xoPnfnEEwyOjkK36OJZI7jw9mpiSgdTMXPzW5YbjWDvvORJNg83ESSgkC/XEMpksLtvGnXNfxq8azyI1MxeSxLRZX5cmU2B0uB/PvXiEwUg0A65KJSG4iyUIT3ArRnL68rCvTUqTobt3AN5utr4img43+pMQMBjDdM7TjSWSpFlNod4sMSUDALjPkWgGbCZOQsBgDFPn5UEsWTq3bRfBqVeOGImml56yBG3eQRaCoorBGCbJkgQWgWiBFCmk8A/xPiNFF4Mx3G/c1cvwUWBoTteODvcDANYpc1hIommo8qXc5E9Rx2AMU3nx6hudbcKf7vloZCIYuSqVaHrSFAlOt11lISiqGIxh2lS8GinJiRj0ecO67tpYAMMDH+Iz6kIWkeg2SlVZ3LZBUcVgDFOGNAmGRz6F0eF+DPV1zfo6f+8HSFyaANNXt7KIRLeRu4xHUFF0MRjn4MmHylC8Jg/D/ZcwMvDhbR87fn0Mgz4vJIlpeEq/CYocnlROdDvSVLaGo+hiMM7RP3/ri/jYqiwM9H6A/g/duDZ2a/Pj0eF+XL3UhqG+LqzOz0PJ+o+zcER3UFqUiYHhaywERY2EJZibDGkSXt/3OH784hG8/MZpBAavQJKYBkliMsbHr2N0eADj18eQmpyIn373S1ianIHahg7s51lzFEWvH7mI9X82glx5smC/xnSOGCnKGIzz9MyXt+IvvlACx7F2nP6vLpz3LcXShADWFaxCiWoltJtVoXMY09/uRMOJS9CVr2ThKCrylifDZD2LXHkytpbIBfleZPcbijYGYwQocjLx5ENlePIhoLahA6VFmdOeQr7zkUKYrGcZjBQ1mz6xDN/WqHG67SqONPdie6MLW0uyoSvPEdQoUprCH00UPbzHuIhy5ckoLeLROhR9paos7NQXwmJcDwAwWc9in90tmD2E6ancz0jRw2BcZNUPFOBIcw/3aUVJvz+Aky3ncbLlPPr9PC0+V56Mal0BDn5LjaL8NNS93YntP3Sh4cSlqL5HixRSfo9Q1HC+YpFJUyTYWpKNVxo7Ua0rYEEWyYFDTfj337XhvfcvT/n7T23Ix+c/rcLD2g2ir5GufCV05SvR1TuCusZO1DV2orQoC1UVeYs+zZorT0KbdxBbS7L55qVFx2CMgkcr8vDED1yCu68Tj7zdfXj6xw147/3LUOZn47EHN0KZP/HD9kzbRbS0dmLPC2/h33/XhueefiC0UErMcuXJ2KkvhH94DO809yz6Yp1+fwB//KALrvYhyBL7sal4Nff/0qJiMEaBNEWC6gcKUNfYiZ16tohbKCdbzuPp5xpwfRz4xpOfxeZ77p7y8eI1eXjswY047GzGy2+cgm7Hz2H97sNYV7iCxbvxPg2OIhdjsc7JlvPYe/Ao3nv/MhLukiAxJQN73r0CAFh79wp89Usb2WeYFgWDMUp05SuxvdGF021Xp13BSvPT7w/gez9zIjU5Ebv/+r8jR54+42O3aUpQvCYPz+7/Nfb98rew/cPDLOBNSlVZoR6mrzR2wmQ9i9KiLGwtkUfk/bvvl0fx4uEm5MjT8diDG1G8Jg/K/Gx09w7g+B88cB57D8/8YwO+7C7DVx7ayJE9LSguvomial0B6t7uZCEWwM8PncLFy/0wVN1721AMUuZnY9tni/H7Mxdw4FATCzgDaYoktFinVJUZWqxT1+id82IZ4/dex4uHm6DZshaWp7dhm6YkNN2dI0/HNk0J/vk7VdimKcGLh5tg+IfX+ELQgmIwRlFwYQGXpUdWvz+AFw83hUaCsxV8/M8PnWIRZ/n+tRjXw2Jcj4Hha9ixtxn77O6wutYcONSEky3n8diDG2GsuhdpqTOPBIOPee/9y9j3y6N8AWjBMBijrOr+POx71c1CRJDjeBsA3HJPcTY0W9ZiYDCAc+7LLOQsBbd87N9VgqL8NOy1u2GynkXDiUu3va7fH8DPD51C8Zo8bNOUzPr12XzP3XjNcQbe7j4WnxYEgzHKSlVZKC3KuuMPEZq9c+7LSEtNCk3HhaNYtQrAxEIQCk9wsc7+XSWouj8P7RcG8dDfn0RtQ8e0Ld4OHD6FgcEAHntwY1if57Evfgrj48BrjjMsOi0IBqMAVFXkofbNDm5ojhBvdx8K8+e2/y04ldc/yF6d8xHsrPPLb6sBTHTW2XOwdcptg7N/7A4tsglHjjwdG1SrcOxd/vJCC4PBKAC58mToNq/EK41ciBMp/iF2tRGCyYt17iuRT1msc+ps15xG9cDEYqnW9y9zOpUWBINRIB6tyGOruAhZV7gCngs9GJxDOHou9AAAN5QvgJsX66TL5975KRionQxGWgAMRoEItoqrfZMNxuervHg1AKCl7WLY17a0TozaN914Doq84GKd/g/nvuhscHgUAJCexs5RFHkMRgF5tCIPp9uv8iy6edpUvBqrVmTi5V/9PqzrBocCOPxWCz6hXMER4yJYtSJzzlPengs9SE9LYpciWhAMRgGRpkgmFuLwWKp52/XEvejuHcDLb8x+T6K17igGhwLY/ZSGBVwE5cX5ONM6t/vqLa2d2LSBo3paGAxGgQmebsBN//Oj3VKE9Z8sxr/97v1ZhePLb5zCH9x+fHlbGUchi2RzSUHYv7wAwGFnMzwXerD5HgYjLQwGowCxVdz8nG67iu0/dOHT9xTg0xtW4rCzGXv2/xrdvQO3PLaltROm5w7jsLMZ6fKPYecT97KAi0S7pQia8iI4jr037WszneB098ZP5vOoMFowbCIuQKWqLNS93YmGE5cW5ZifeBFscH2kuQc7Hym80dy6EAcOrcDPD53C/3y2DjnydORkZwAA3DdWrqanJeHH/0sH55lR+IfHIE3ht8Vi2bn9Xpx85l/wkwNvwVh17223b3T3DuAnB97C4FAAu7Z/hsWjBcOfAAJVrSvAnoOtDMZZOt12FftedWNrSTb27yqZEm5PPlQG7ZYinGw5jxPN53F1YGJx03/7tArrCldAu1mFDGkSzna60XbBz9NOFpEiJxPfeUqDZ19wwvTcYTz24MZp28Mddjbj8FstuCsB2P3UZzndTQuKwShQRQopSouyUNfoRVWFggWZgX94DHvtbnT1jmD39jUoUkinfZwiJxMK7YbbTr9JUyVo9zIYF5t2SxE2Fa/G08+9iZffOIWX3ziFzffcjZzsDHT39KOl7SIGhwJYe/cKPPeMjiuGacExGAWsqiIPO/Y2Q7d5Jaf3pnGkuQd77W7oNq/E7u1r5v18pUWZON3ODePRkCFNgu0fHobjWDvOebrx779rx/F338eqFZmo/PwGrFPm8JBiWjT8aStgk1vFVesKWJAbunpHUNsw0Vt2/66SiJ0kn35jxEjRo91SBO2WInz9cS6CoujhqlSBC7aK46b/CXWNXpisZ6FSpMFiXB+xUAQmpq9ZZyLiiFHgJo7yyUFdYyd26gtFW4eu3pHQuZWRDsSb601E4sYRYwyoqlCIulVcbUMHTNaz0JXnLGgoAhPTqWyuQCRuDMYYUVWRFxoxiUW7148de5vR1TuC/btKsLUke8E/Z5FCyhNOiESOwRgjgvsZxTKaqW3owJ6DrXi0Ig+7t69ZtCnOXHkS2ryDfMMRiRiDMYZU3R//DcaD7dwALNoocbLcZclcgEMkcgzGGFKqykJ6qgQNJy7F3b/NPzyG2oYO7HvVjZ2PFKJaVxCVhTClqiwGI5HIMRhjzM5HClHXGF8Nxk+3XcWOvc0AJkaJ0e48w2AkEjeuTY8xufJklBZlobahI+Y3/c+2ndtiU+VP7GdcyNWvRCRcHDHGoOoHCnCkuSemV08eae7BEz9wIVeejP27SgQTigA3+hOJHUeMMUiaIsHWkuyYbBW3UO3cIu10ex+biROJFEeMMerRijw0HL8UUyObhWznFkmlRTy9gUjMGIwxSpoiQfUDBTGxEKerdwQm61mcbu+Dxbhe8Mdo5cqT2UycSMQ4lRrDdOUrsb3RhdNtVwU77Vfb0IEjzT2o1hUs+p7EucqVJ6PtAoORSKwYjDGuWleAurc7BReM7V4/9trdocU1sdacO1eeDP/wGJuKE4kQp1JjXHAUJqRWcdFq5xZJHDUSiReDMQ5U3S+MBuPRbucWSbnyZHRd4ZYNIjHiPFEcKFVloUghRcOJS6Fm44vJPzyGVxo7caS5BzsfKYyLbQ4qRRqbiROJFEeMcaJaN7FCdbE3/QutnVukSFMkXJlKJFIMxjiRK08ObfpfDP7hMew52Irahg7s3r4mak2/F0qpKgsDQzyXkUiMGIxx5NGKvEVpFSfkdm6RxAOLicSJ9xjjSLBVXO2bHdipL4z488dKO7dICW70j9fgJ6LpMRjjzKMVedixtznip0PUNXrRcKIbuvIcwXeuiZRgM3EGI4UrISGBRYhhDMY4I02RoKoiL3Tvb766ekdCW0GE3N90IaSnLEGbdzCmt51QdJhMJhYhSpRK5byfg8EYh3TlK1HX2Dltq7hz7stwHG8DAKxT5kC7pWjG54nFdm6RVKSQ4khzL99QFLaamhoWIYYxGOPUzkcKp7SKe/6lo6j7dQuGRkanPvAfgS9WrMfTf7UVGdIkALHfzi1SVPlS1L0t/CbtRBRZDMY4VarKQt3bnTh05Dx+8eo7+KCzF0lpy5Auz0BSmgwJd0kQGLyCsdEh/KrxLH7zu3bUfOO/44/dCaIeJU4mTZEIqtUeES0OBmMce7Bcjr9/4ffo6+lDuvxjSE5fPuXjSWnLbvwnw0BPB75TewZbSxWiHiXerFSVxWbiRCLDfYxxzFb3W/T3nkfWStUtoTiZJDENWStVGOq7BOd/HMf1a9dYvBtyl7GZOJHYMBjj1GuOM2hp7URKxkpIEtPu+PiEuyRIzy7ASGAUz/3iCAt4gzSVreGIxIbBGKdebmiGJDENqZm5s74m+PhfNZ5Fvz/AImKimfjAMEfQRGLCYIxD/f4APBd6kJQmC/va4DUnW86zkPhT9xsiEg8GYxwK7lNMTMkI+1pJYhoS7pLgBIMRwJ+63xCReDAY45C3uw8AZnVvcTpLk1JDz0HgilQikWEwxqGMtIm2bdfG5naf8NpHgdBmfwLSU7mfkUhMGIxxKNjm7aPh/rCvvTYWwLWxAMqLV7OQNxQppDyCikhEGIxxSJGTCblMitGR8IMxMHgFALCJwRiSK09Cm3eQhSASCQZjnPrin69FYPAKRsMYNY5fH8NQ3yX82ScUUORksog35C5L5gIcIhFhMMaprz9+L+QyKfy9H2D8+uymAQd6OzB+fQx7/kbLAk6iyufKVCIxYTDGsa/qtyI5fTmuXmrD2OjMU4Hj18fQ/6EbSakyqMs2YvijJSzeJNIUCYORSEQYjHGqq3cE/79rAE89tB6ShI9w9VIbBn3eKStVx6+PYWTgQ/gunkNg8AoeLM/El+4vxF67Gzv2NqPhxCUW8gaOGonEgxu04tSeg62oqsiDrnwl7i9bhd3/x4E//JcXQ31dWCJJQsJdktAocvmydHz/b3ShBTe68pVo9/rRcLwbD715ErrNK6Erz0GuPFm09Qxu9BdzDYjEgsEYh/bZ3VAppNCVrwQwsUr1wPcfgbe7D45j7Tjn6Ua/P4B1hZ+AdrMK6wpX3PIcRQopduqlqH6gAA3HL8FkPYsihRT3lchFe07j6fa+0MHPRBS/GIxxpuHEJbR5/di/q+SWjylyMvHkQ2VhPZ80RYKqCgWqKhQ40tyDd5p7UdvQAV15DnSbV4qmK0xpUSZOt7MbEJEYMBjjSLvXj9o3O/DLb6sX5Pm3lmRja0k2unpH0HCiG0/8wIX7SrKh25yDIoU0rmubK09G+9udfJMRiQCDMU74h8ew52Ardm9fs+CjuFx5Mqp1BajWFaDhxCXstbsBALrNOaHp23iTK+eBxURiwWCME3sOtkJXnrPo98B05SunLNbZ3ujC1pLsuFyskytPhn94jE3FieIcv8PjQG1DB3KXJaOqQhG1ryG4WMc/PBZarJMrT4auPCduFusER41cgEMU3xiMMe5Icw9Ot13Fj55aL4ivZ/JindNtV9Fwohu1DR3YWpKNRyvyYnq0lStPRtcV7mUkincMxhjW7vWjtqFjUe4rzkWpKgulqqxbFutsLZHH5KhLpUhjM3EiEWDnmxjlHx7DXrsb1boCwa8IDS7WOfT9TSjKT0Pd252hzjqxdJyTNEWCdi8X4BDFO44YY9ReuxulqqyYu39382KdusbOmFmsU6rKQm1DB998RHGOwRiDgj+cq3UFMftviNXFOjywmCj+MRhjzOm2qzjS3DNtZ5tYFGuLdXLlyWj3+uO+oQGRmPh8PrhcLjidTrhcLgZjLOnqHcG+V92CXWwzXzcv1tmxtxmlRVmCWqwTbCbOYCSKXT6fD3a7HR6PJxSGkzEYY0Sws01VRZ4o2q9N7qxT93Yn9r3qRlVFHu4ryY7qLwXpKUvQ5h0UbSN1onhhs9luCUQAUKvVDMZYUftmB0pVWXHbcm0mwcU6Xb0jqGvsRF1jJ0qLslBVkReVxTpFCimONPfyDUkUw2QyGRwOBwoLC+Hz+aZ8zGAwcLtGLAiemBHLi23mK1eejJ36QuzfVYKi/DSYrGdhsp5d9MOUVflSbvInigMymQwGg2HK3ymVShgMBo4YhW6hT8yINdIUSWgUObEQqXdR+rO+5jiD5rZLeOt4OyQZd+Oehx1Q5mfjvrKP4WHtBihyMvniEMUQs9kMp9OJmpoamM1mAIBerwfAe4yC5h8ewzdfOIsfPbWejauncfNiHZP1bMQX63i7+/Ct53+DltZOLJEkYWlKJsZH+pGamYvz3f04cKgJ//pvLXjmyc/gYe0GvihEAufz+VBZWQmlUgmHwwGZTAafzwebzQaTyQSAwShoew624lERLLaZr4VarHOy5Tx2Wt7EyOh1pMkUSM3MnfLxNBlwbSyA/stu7HnhLRz9Qwf2fvMBviBEAuVyuWA0GqHRaFBTUxP6+5qaGqjVashkMgAMRsESwokZsShSi3X6/QHstLyJj64vRdbKAkgS06Z93BJJEmSr1mHQ58XbJ/+IA4ea8ORDZXwhiATG6XTCaDSipqYmNGU62eS/YzAKUMOJS4I6MSMWBRfr+IfH8E5zD/YcbEV6qgRbS+SzWtn77X/6DYZHRiFb9fEZQ3GyNJkCY6ODeMF+EtotRbznSCQgFosFNpsN9fX1UKvvvF6Dq1IFpt3rR11jZ9xu4l9swcU6+3eVoOr+PLRfGMT2H7pQ29CBrt7pV5eec1/Gb11upGbmzioUQ59L/jF8NDaOf/zFb1l4IoEwGo2w2+1oamqaVSgCHDEKSnAT/85HCgXfUDsWBRfr+IfH8EpjJ0zWsyhSSKErz5myWMdxvA0AkJoZ3p7RJZIkJEuX40TzeRabKMp8Ph+0Wi3UajWamprCupYjRgHZa3dja0k2T4hfYNIUCap1BTj4LTXuK5Gj7u1ObP+hC3WNXviHx+A614XElAwk3BX+742SxFQMj4zinPsyC00UJS6XC2VlZTAYDLBareF/H7OEwhAPJ2bEoq0l2dhakj2lP6v7ckJYU6iTBcN0YJBNAIiiwWazwWKxwGq1QqPRzOk5OGIUgCPNPTjddhW79IUsRpQEt3zs31WCwKCPBSGKQWazObTIZq6hCHDEGHVdvSOobejgYhuBkKZIsO7uLLx3fmBO149fnzivMT2N94iJFovP54PRaASA0Kb9+eCIMYrEdGJGLFGvy8XocH8o5MIxNjqElORErCtcwUISLQKPxwOtVgulUon6+vp5hyLAYIwqsZ6YIXTazSoAwFBfeA3Kr40FMOL/EOUlq1lEokXgcrmg1WphMBimdLKZLwZjlNQ1etF1ZYSLbQRoXeEKfEZdiKG+LoyNDs76On/vB1gqScD/+qvPsIhEC8xms0Gr1aK+vv6WUzLmi8EYBe1eP165sYmfhOkHf/s5pCQnYqCnY1bhOOjzYnS4H0/pN7HrDdECMxqNsNlscLvds960Hw4G4yLjiRmxIUOahH2mB7D0ro9w9VIbhvq6pn3ctbEAfBfPYaivC/dv+jj7pBItoOCmfSAyi2xmwp/MEdLvD+Bky3k0nb2MjvMX8NHIamwqvvVe0zdfOIvqBwq42CYGbCpeDftPHrtx7JQXIwMfYmlKBu66sVdxdLgfY6ODSE5KxN899VkeO0W0gIInY+j1+tDxUAuFwThP3u4+7Dt4FM4T7QAm2oJdv34NbzibkJ6WhIe1G/CVhzZOjEDsbqgUUi62iSGKnEwc/KF+ykHFg8OjAHDjoOJP8KBiogVmt9thNptnPBkj0hiM8/Ca4wz2/fIoro8D2zQl2HzP3VDmZ2NwKICWtotoae3Ei4ebcLz5PLT3bUSbdwj7d5WwcDHoYe0GPKzdgGf/WstiEC2icE/GiAQG4xw9/9JRHDjUBGV+Nr7x5GeRI08PfSwtNQmb77kbm++5G8Vr8mCtO4p/dXbgH778CRaOiGgWfD4fzGYzPB4PmpqaFux+4nS4+GYOvN19OHCoCZvvuRuWp7dNCcWbbb7nbvx0dyVGrrTjpy+/w+IREd3BYi2ymQmDcQ6e/ZkTaalJeOyLn5rV49NSk/D4gxvx3vuXceBQU5xXh4ho7lwuFwoLC+d8MkYkMBjDdM59Gb8/cwHbPlt825HizTRb1qJ4TR7sv2lhEYmIpmGz2VBZWQmHwxHxTfvhYDCGKXiIrXbL2rCv3XzP3bh4uR/e7j4WkohokuDJGA6HY9EW2cyEwRimc+7LUOZnIy01KexrN6zJAwA4jrWzkEREmLifWFlZCY/HA4fDAaVSGfWvicEYpuvXxyGdQygCCE299vMQWyKiBTkZIxIYjGFKSGANiIjmy+l0LsjJGJHAYAzT+o/nwH2hZ07XtrR2AgDKi3ksERGJV3CRzUKcjBEJ3OAfpnXKHAwONaGltRPFN+4ZztaZtosAMG0PVSIiMTAajXC5XHC73YKZOr0ZR4xh2lS8GulpSXj5jVNhXdfdO4DDzmZ8SfNJFpGIRMfn86GsbOL0mcXuZBMuBmOYMqRJ2PnEvfBc6MFhZ/Osr7PVHUV6WhK+8qWNLCIRiYrL5UJZWRn0en3UNu2Hg8E4Bw9rN+ATa9fg305+eMdwHBwKwFp3FC2tnfjKQxt5CgMRiYrdbkdlZSWsVuuCHxcVKbzHOAen265iJEGGwhVdePmNU/Bc6MFjX/zULZ1wWlo7Yas7iu7eAXx5WxkPsSUiUTGbzXA6nYt6MkYkMBjD1O71Y9+rbvzoqU+iSFGOfb88OnG01LvvQ5mfHdrj6L7Qg8GhANLTkmD97pe44IaIRGPyyRjRaAI+XwzGMPiHx7DX7kZVRR6KFFIAwM4n7sUjn9sAx7F2nP1jN/r8E5v3P7+lCOs/ngPtZhUypEliLhsRiUjwZAyNRgOHwxGT/wYGYxj2HGzFfSVy6MpXTvl7RU4mp0mJSPRcLhe0Wi1qamoEuT9xtrj4Zpb22d3IXZaMqgoFi0FEdBObzQatVhv1kzEigSPGWahr9KLN68f+XSUsBhHRTYKLbJqamgTRBHy+OGK8gyPNPXinuRc/emo9i0FENEnwZAyfzyeYkzEigcF4G+1eP2obOrBLXwhpCgfXRERBwfuJSqUSVqs15lae3g5/2s/APzyGb75wFru3rwmtQCUioomTMYxGI2pqaqDX6+Pu38dgnEYwFKsfKECpKosFISK6wWKxwGazxdym/XAwGKdR+2YHVArpLdsyiIjELHgyhtCbgM8Xg/EmtQ0dGBgew+7ta1gMijtarZZFoLAFN+2r1Wo0NTXF/b+XwThJw4lLON12lStQKW49+uijKCgoYCFo1lwuFyorK2EymWJ+f+JsMRhvaPf6UftmB/bvKuEKVIpbX/3qV6HRaFgImhWbzQaLxQKr1Sqq9w0TAEBX7wi++cJZ/Oip9ciVJ7MgRCR6sXoyRiSIPhj9w2PYc7AV1Q8UcFsGEYle8GSM4Kb9eF5kMxPRb/Dfa3ejVJXFFahEJHoejwdarRYymQz19fWiDEVA5MG4z+5GeooE1TouRiAicQt2sjEYDKipqRF1LUQbjA0nLqHN60f1AwxFIhK34MkY9fX1oll5ejuivMd4uu0q6ho7uQKViEQvuGnf7XaLdur0ZqIbMbZ7/dj3qhu7t69hKBKRaAU37QMQ7SKbmYgqGEMrUHVcgUpE4hW8n6jRaOLuZIxIEFUwfvOFs9CV52BrSTZfeSISJbvdHupkYzKZWJBpiGYucZ/dDZVCiqoKBV91IhIlMZyMEQmiCMa6Ri+6rozAYmQPVCISJ6PRCI/HE/cnY0RC3E+lNpy4hHeae3laBhGJks/nQ1lZGQAuspmtuA7Gdq8fdY2d2KUv5ApUIhIdl8uFwsJCGAwGWK1WFmSW4jYY/cNj+OYLZ7HzkUKuQCUi0bHZbKisrOSm/TmIy2FUMBSrHyhAqSqLrzIRiUrwZAyHwwGlUsmChCkug7H2zQ42Bici0fH5fDAajQB4P3E+4m4qtbahAwPDY2wMTkSiEjwZQ6lUivpkjEiIq2BsOHEJp9uuYpe+kK8sEYmG0+nkyRgRFDdTqe1eP2rf7MAvv63mClQiEg2bzQaz2QyHwxGRTfsejwcejwcymUy0TQDiIkHavX7sOdiKHz21nqFIRKIR6ZMxbDZb6B4lgNAIVGzTsjE/leofHsNeuxtVFXnclkFEojD5ZIxIdbJxOp0wGo2oqanB+Pg4TCYTbDYbLBaL6Oob88G452ArV6ASkWi4XC6UlZWFTsaIFKfTCbVaDZPJBLvdDpvNBo1GI8pG4zEdjPvsbuQuS+YKVCISheDJGDU1NQsWWGazGZWVlTAYDKEtH2VlZfD5fKKpc8zekGs4cQltXj/27yrhdwsRxb3gpv1InYxhs9ng8XhgMpkgk8mgVCrhcrng8XhQX18PvV4PYOJEDpfLBZfLBY1GI4pax2QwHmnuQV1jJ0ORiOKez+eD2WyGx+OJ2KZ9rVYLp9MJYCIgHQ4HDAYDbDZbKBydTiecTicsFgtMJpNoQhGIwanUdq8ftQ0d2L19DVegElFcCy6ykclkEQtFm80Gp9OJmpoaNDU1AZhY3erz+eBwOKDRaGA2m6HVamGz2WAymUS3NzKmksU/PIY9B1tRrSvgClQiimsulwtarRY1NTURaQIeDESPxwODwRC6R1lfXw+tVguj0Yj6+no4HA64XC74fD5RjRIni6kR4zdfOIuqijxsLcnmdw0RxS2bzQatVhua4pwvs9kMo9EIp9MJl8s15WPBlad2uz20NUOtVos2FIEojxj7/QG85jiD3/9nJ46/+z4AYPmydGy+ZzV0n1mDTcWrQ4/dZ3dDpZByWwYRxbXgIpumpqawT8bw+Xzw+Xyh63w+H2w225QpUaPRCJvNBqVSGRo11tTUwOPxwGKxQK/Xi/5EjqgF48mW89hpeRPDI6OQJKYhNTMXADDw0Rje+I9W/KrxLD6jLsQP/vZzqH/nErqujMBiXM/vGiKKS8GTMeZzP7GyshIulysUqsF2cUqlMnSf0Gq1hhb0TB4ZWq1WeDweHlOFKE2lPv/SURi/9zpGxxIgW7UOslXrkCZTIE2mQLr8Y8he/WdIzczFb11uPPzN/4tjZz7E7u1r+J1DRHEpeD9RqVTCarWGHYrBrjXBUaHH4wEAmEwm6PX60CrTIKvVCqVSicrKytD+RDH3Rr3ZogfjyZbzOHCoCcnpyyFbtQ6SxLRpH5cmUyAzZw16e3tx5dIfuQKViOKS0+kMbaify+pPi8UCrVYLl8sFtVoNtVoNrVYLs9kMYOYQrK+vD31+mmpRg7HfH8DfPf8bLJEkIV3+MSTcdfuwS0zJgFSmwAcXLuH5l47y1SKiuGKxWEKrQcNdZOPz+VBZWQmz2TylS41arYbBYIDFYoHdbp8SgsH+qsDEApumpqbQRn76k0UNxgOHT+HKVT+k8o/N+pqktGVITMnAK79ugbe7j68YEcUFo9EIu92OpqamsKcwg1Ovdrt92unXmpoaqNXq0OkbarUaNTU1cLlcoZEkAN5PnMGiBuM7TR8gMSUDiSkZYV2XJlNgeGQUJ1vO8xUjopjm8/lQVlYGYG4nYwS3cvh8PphMJng8nilhB0ydKg1u3jcYDDAYDKLqeTpXixaM/f4APBd6ZryneDuSxDQk3CXBOfdlvmJEFLOCJ2MYDIY5n4xhsVig0WjQ1NSEmpoa6PV6WCwW2Gy2KY8LjiQnjxKtVmtET+SIV4sWjP/l6QYALE3OmNP1S5NS0X7+Cl8xIopJNpsNlZWVsFqt89q073A4UF9fHxppWq1WqNVqmM3mWzbv6/V6mEymUP9Tmp2Y6nwzdm2crxgRxRyz2QybzYb6+vp5d5S5+b6gTCYLjQKD06aT1dTUwOFw8H5iGBYtGPNyMgEA18cCc7r+2kcB5K1IAxFRrAhu2g+ejLFQ+wQnL64xGo23fDwSzcfFZNGCUZGTCblMio9GB8O+9tpYANfGAlinzOErRkQxwePxhE7GmDz1uVCCjcHtdvst9xspPIu6a/7Tf1aAN99pxbXMXCyRJM36upGBDwFgSu9UIiKhivTJGLNVU1MDn8/HvYnztKj3GA2PfArXr41h0Oed9TXXxgIY6uvCZ9SFWFe4gq8YEQlapE/GCNdcWsrRVIs6YlTkZOKxB0vx8hunMZKcgeT05bd9/Pj1Mfh7P0ByUiJ+8Lef46tFRIIW3FDvdrsZTjFs0VelPvPlrVDmZ2Og9wMM+rwYvz427ePGRgfhu3gOo8P9eObJzyBDmhT1YhERTcfn84Xarc31ZAwSjqhs13jx+3o89mAphvq64Lt4DoM+L0aH+zE63I/A4BUM9H4A38VzWLpkHNbvfgkPazfwlSIiQQreT9RoNJzGjBNRObIiQ5qEZ768FfeocmF79fdo7+gC+rpCH09JTsQXK9bj6b/aypEiEQmW3W6H2WwOdaCh+BDVs5y0W4qg3VKEfn8g1BknPS2Zi2yISPCCbdjq6+t5jmGcEcQhhxnSJG7FIKKYEdy0P5cm4CR8MdUSjogomiafjMFFNvGLwUhENAsulwuFhYXzOhmDYoMgplKJiITMZrPBYrFEpAk4CR+DkYjoNsxmM5xOJ0+oEBEGIxHRNIInYwC8nyg2vMdIRHST4MkYSqVyUU7GIGFhMBIRTeJ0OqHVamEwGFBTU8OCiBCnUomIbrDZbDCbzQt6qDAJH4ORiAg8GYP+hFOpRCRqk0/GYCcbAhiMRCRiLpcLZWVloZMxiAAGIxGJlN1uR2VlJWpqamAymVgQCuE9RiISHYvFArvdzpMxaFoMRiISDZ/PB7PZDI/Hw037NCNOpRKRKAQX2chkMoYi3RaDkYji3uSTMbhpn+6EwUhEcc1ms0Gr1cLhcMBgMLAgdEe8x0hEcSt4MkZTUxNPxqBZ44iRiOKOz+dDZWUlfD4fj4uisDEYiSiuuFyu0MkYVquVi2wobAxGIoobTqcTlZWVXGRD88J7jEQUFywWC2w2Gzft07wxGIko5gVPxmATcIoETqUSUczy+XwoKysDwJMxKHIYjEQUk4InYxgMBp6MQRHFqVQiijk2mw0WiwVWqxUajYYFoYiSABPHr7hcLlaDKE75fL64+bcEN+1zkQ0tFAl/2yKKfzKZDBqNJqbvwQVPxghu2uf9RFooCePj4+MsAxEJmcfjQWVlJTQaDfcn0oLj4hsiErTJi2wYirQYGIxEJFg8GYOigatSiUiQgots3G437yfSouKIkYgExefzQavVcpENRQ2DkYgEI3gyhkaj4ckYFDUMRiISBLvdjsrKSphMJphMJhaEoob3GIko6ngyBgkJg5GIospoNMLj8bAJOAkGp1KJKComn4zBRTYkJAxGIlp0LpcLhYWFPBmDBIlTqUS0qIInY9TX1/NkDBIkBiMRLZrgpn2HwwGlUsmCkCAxGIlowfl8PhiNRgC8n0jCx3uMRLSgPB4PtFotlEol6uvrGYokeAxGIlowTqcTWq2WJ2NQTOFUKhEtCLvdDqPRCIfDwU37FFN4UDERLQifzwcAnDqlmPP/APWqzvlqXN3oAAAAJXRFWHRkYXRlOmNyZWF0ZQAyMDIzLTAzLTIxVDIzOjI1OjU0KzAwOjAwsqi83AAAACV0RVh0ZGF0ZTptb2RpZnkAMjAyMy0wMy0yMVQyMzoyNTo1NCswMDowMMP1BGAAAAAZdEVYdGRjOmZvcm1hdABhcHBsaWNhdGlvbi9wZGYegbPBAAAAH3RFWHRqYXY6am91cm5hbF9hcnRpY2xlX3ZlcnNpb24AVm9SL4lD4AAAACB0RVh0cGRmOkhpUmVzQm91bmRpbmdCb3gANjEyeDc5MiswKzCfnX1XAAAAFHRFWHRwZGY6VmVyc2lvbgBQREYtMS40IBxHOngAAAAjdEVYdHByaXNtOmRvaQAxMC4xMTA5L1RJVFMuMjAyMy4zMjU3NzU5hiWoWwAAABN0RVh0cHJpc206ZW5kaW5nUGFnZQA0MHJLsosAAAAYdEVYdHByaXNtOmlzc3VlSWRlbnRpZmllcgA5OaIEyv8AAABNdEVYdHByaXNtOnB1YmxpY2F0aW9uTmFtZQBJRUVFIFRyYW5zYWN0aW9ucyBvbiBJbnRlbGxpZ2VudCBUcmFuc3BvcnRhdGlvbiBTeXN0ZW1zXSh8UAAAABR0RVh0cHJpc206c3RhcnRpbmdQYWdlADEPd+/JAAAAD3RFWHRwcmlzbTp2b2x1bWUAUFCg9tVLAAAAAElFTkSuQmCC" vertex="1" parent="1">
          <mxGeometry x="186.09" y="380" width="107.83" height="100" as="geometry" />
        </mxCell>
        <mxCell id="iaX_U97VyxdjdcJAwhCC-17" value="&lt;font size=&quot;1&quot; style=&quot;&quot;&gt;&lt;b style=&quot;font-size: 21px;&quot;&gt;动态图&lt;/b&gt;&lt;/font&gt;" style="text;html=1;align=center;verticalAlign=middle;whiteSpace=wrap;rounded=0;" vertex="1" parent="1">
          <mxGeometry x="200.01" y="480" width="80" height="30" as="geometry" />
        </mxCell>
        <mxCell id="iaX_U97VyxdjdcJAwhCC-18" value="" style="rounded=0;whiteSpace=wrap;html=1;fillColor=#dae8fc;strokeColor=#6c8ebf;" vertex="1" parent="1">
          <mxGeometry x="310" y="370" width="280" height="140" as="geometry" />
        </mxCell>
        <mxCell id="iaX_U97VyxdjdcJAwhCC-19" value="" style="rounded=0;whiteSpace=wrap;html=1;" vertex="1" parent="1">
          <mxGeometry x="600" y="370" width="110" height="140" as="geometry" />
        </mxCell>
        <mxCell id="iaX_U97VyxdjdcJAwhCC-20" value="&lt;font size=&quot;1&quot; style=&quot;&quot;&gt;&lt;b style=&quot;font-size: 21px;&quot;&gt;加速器框架&lt;/b&gt;&lt;/font&gt;" style="text;html=1;align=center;verticalAlign=middle;whiteSpace=wrap;rounded=0;" vertex="1" parent="1">
          <mxGeometry x="380" y="370" width="140" height="30" as="geometry" />
        </mxCell>
        <mxCell id="iaX_U97VyxdjdcJAwhCC-21" value="" style="rounded=1;whiteSpace=wrap;html=1;fillColor=#fff2cc;strokeColor=#d6b656;" vertex="1" parent="1">
          <mxGeometry x="335" y="400" width="230" height="40" as="geometry" />
        </mxCell>
        <mxCell id="iaX_U97VyxdjdcJAwhCC-22" value="" style="rounded=1;whiteSpace=wrap;html=1;fillColor=#fff2cc;strokeColor=#d6b656;" vertex="1" parent="1">
          <mxGeometry x="335" y="454" width="230" height="40" as="geometry" />
        </mxCell>
        <mxCell id="iaX_U97VyxdjdcJAwhCC-23" value="&lt;font style=&quot;font-size: 18px;&quot;&gt;OpenCL处理器&lt;/font&gt;" style="text;html=1;align=center;verticalAlign=middle;whiteSpace=wrap;rounded=0;" vertex="1" parent="1">
          <mxGeometry x="380" y="405" width="140" height="30" as="geometry" />
        </mxCell>
        <mxCell id="iaX_U97VyxdjdcJAwhCC-24" value="&lt;font style=&quot;font-size: 18px;&quot;&gt;内部P2P处理程序&lt;/font&gt;" style="text;html=1;align=center;verticalAlign=middle;whiteSpace=wrap;rounded=0;" vertex="1" parent="1">
          <mxGeometry x="370" y="459" width="160" height="30" as="geometry" />
        </mxCell>
        <mxCell id="iaX_U97VyxdjdcJAwhCC-25" value="&lt;font style=&quot;font-size: 18px;&quot;&gt;自定义优化器&lt;/font&gt;" style="rounded=1;whiteSpace=wrap;html=1;fillColor=#fff2cc;strokeColor=#d6b656;" vertex="1" parent="1">
          <mxGeometry x="603" y="400" width="65" height="50" as="geometry" />
        </mxCell>
        <mxCell id="iaX_U97VyxdjdcJAwhCC-26" value="&lt;font style=&quot;font-size: 18px;&quot;&gt;自定义压缩器&lt;/font&gt;" style="rounded=1;whiteSpace=wrap;html=1;fillColor=#fff2cc;strokeColor=#d6b656;" vertex="1" parent="1">
          <mxGeometry x="603" y="454" width="65" height="50" as="geometry" />
        </mxCell>
        <mxCell id="iaX_U97VyxdjdcJAwhCC-27" value="&lt;font size=&quot;1&quot; style=&quot;&quot;&gt;&lt;b style=&quot;font-size: 21px;&quot;&gt;合成引擎&lt;/b&gt;&lt;/font&gt;" style="text;html=1;align=center;verticalAlign=middle;whiteSpace=wrap;rounded=0;" vertex="1" parent="1">
          <mxGeometry x="585" y="370" width="140" height="30" as="geometry" />
        </mxCell>
        <mxCell id="iaX_U97VyxdjdcJAwhCC-29" value="" style="endArrow=none;dashed=1;html=1;rounded=0;" edge="1" parent="1">
          <mxGeometry width="50" height="50" relative="1" as="geometry">
            <mxPoint x="83" y="533" as="sourcePoint" />
            <mxPoint x="730" y="533" as="targetPoint" />
          </mxGeometry>
        </mxCell>
        <mxCell id="iaX_U97VyxdjdcJAwhCC-30" value="" style="rounded=1;whiteSpace=wrap;html=1;" vertex="1" parent="1">
          <mxGeometry x="160" y="546" width="570" height="160" as="geometry" />
        </mxCell>
        <mxCell id="iaX_U97VyxdjdcJAwhCC-31" value="" style="rounded=0;whiteSpace=wrap;html=1;" vertex="1" parent="1">
          <mxGeometry x="180" y="555" width="200" height="135" as="geometry" />
        </mxCell>
        <mxCell id="iaX_U97VyxdjdcJAwhCC-34" style="edgeStyle=orthogonalEdgeStyle;rounded=0;orthogonalLoop=1;jettySize=auto;html=1;entryX=1;entryY=0.5;entryDx=0;entryDy=0;endArrow=none;endFill=0;" edge="1" parent="1" source="iaX_U97VyxdjdcJAwhCC-32" target="iaX_U97VyxdjdcJAwhCC-31">
          <mxGeometry relative="1" as="geometry" />
        </mxCell>
        <mxCell id="iaX_U97VyxdjdcJAwhCC-39" style="edgeStyle=orthogonalEdgeStyle;rounded=0;orthogonalLoop=1;jettySize=auto;html=1;entryX=0;entryY=0.5;entryDx=0;entryDy=0;endArrow=none;endFill=0;" edge="1" parent="1" source="iaX_U97VyxdjdcJAwhCC-32" target="iaX_U97VyxdjdcJAwhCC-33">
          <mxGeometry relative="1" as="geometry" />
        </mxCell>
        <mxCell id="iaX_U97VyxdjdcJAwhCC-32" value="&lt;font style=&quot;font-size: 18px;&quot;&gt;PCIe&lt;/font&gt;&lt;div style=&quot;font-size: 18px;&quot;&gt;&lt;font style=&quot;font-size: 18px;&quot;&gt;交换&lt;/font&gt;&lt;/div&gt;" style="rounded=0;whiteSpace=wrap;html=1;" vertex="1" parent="1">
          <mxGeometry x="403" y="592.5" width="56" height="60" as="geometry" />
        </mxCell>
        <mxCell id="iaX_U97VyxdjdcJAwhCC-33" value="" style="rounded=0;whiteSpace=wrap;html=1;" vertex="1" parent="1">
          <mxGeometry x="480" y="555" width="230" height="135" as="geometry" />
        </mxCell>
        <mxCell id="iaX_U97VyxdjdcJAwhCC-40" value="" style="sketch=0;pointerEvents=1;shadow=0;dashed=0;html=1;strokeColor=none;fillColor=#434445;aspect=fixed;labelPosition=center;verticalLabelPosition=bottom;verticalAlign=top;align=center;outlineConnect=0;shape=mxgraph.vvd.ssd;" vertex="1" parent="1">
          <mxGeometry x="186.09" y="557" width="50" height="35.5" as="geometry" />
        </mxCell>
        <mxCell id="iaX_U97VyxdjdcJAwhCC-41" style="rounded=0;orthogonalLoop=1;jettySize=auto;html=1;exitX=0.25;exitY=0;exitDx=0;exitDy=0;entryX=0.25;entryY=1;entryDx=0;entryDy=0;endArrow=none;endFill=0;" edge="1" parent="1" source="iaX_U97VyxdjdcJAwhCC-33" target="iaX_U97VyxdjdcJAwhCC-33">
          <mxGeometry relative="1" as="geometry" />
        </mxCell>
        <mxCell id="iaX_U97VyxdjdcJAwhCC-42" value="" style="pointerEvents=1;shadow=0;dashed=0;html=1;strokeColor=none;fillColor=#000000;labelPosition=center;verticalLabelPosition=bottom;verticalAlign=top;align=center;outlineConnect=0;shape=mxgraph.veeam.ram;" vertex="1" parent="1">
          <mxGeometry x="485" y="592" width="48.4" height="25.2" as="geometry" />
        </mxCell>
        <mxCell id="iaX_U97VyxdjdcJAwhCC-43" value="&lt;span style=&quot;font-size: 18px;&quot;&gt;主存&lt;/span&gt;" style="text;html=1;align=center;verticalAlign=middle;whiteSpace=wrap;rounded=0;" vertex="1" parent="1">
          <mxGeometry x="483.4" y="625.5" width="50" height="30" as="geometry" />
        </mxCell>
        <mxCell id="iaX_U97VyxdjdcJAwhCC-44" value="&lt;font style=&quot;font-size: 18px;&quot;&gt;解压器&lt;/font&gt;" style="rounded=0;whiteSpace=wrap;html=1;fillColor=#fff2cc;strokeColor=#d6b656;" vertex="1" parent="1">
          <mxGeometry x="612" y="582.2" width="85" height="35" as="geometry" />
        </mxCell>
        <mxCell id="iaX_U97VyxdjdcJAwhCC-45" value="&lt;font style=&quot;font-size: 18px;&quot;&gt;更新器&lt;/font&gt;" style="rounded=0;whiteSpace=wrap;html=1;fillColor=#fff2cc;strokeColor=#d6b656;" vertex="1" parent="1">
          <mxGeometry x="612.5" y="625.5" width="85" height="35" as="geometry" />
        </mxCell>
        <mxCell id="iaX_U97VyxdjdcJAwhCC-8" value="" style="group" vertex="1" connectable="0" parent="1">
          <mxGeometry x="540" y="582.2" width="60" height="60" as="geometry" />
        </mxCell>
        <mxCell id="iaX_U97VyxdjdcJAwhCC-5" value="" style="sketch=0;pointerEvents=1;shadow=0;dashed=0;html=1;strokeColor=none;fillColor=#434445;aspect=fixed;labelPosition=center;verticalLabelPosition=bottom;verticalAlign=top;align=center;outlineConnect=0;shape=mxgraph.vvd.cpu;" vertex="1" parent="iaX_U97VyxdjdcJAwhCC-8">
          <mxGeometry width="60" height="60" as="geometry" />
        </mxCell>
        <mxCell id="iaX_U97VyxdjdcJAwhCC-6" value="&lt;b&gt;FPGA&lt;/b&gt;" style="text;html=1;align=center;verticalAlign=middle;whiteSpace=wrap;rounded=0;" vertex="1" parent="iaX_U97VyxdjdcJAwhCC-8">
          <mxGeometry x="10" y="15" width="40" height="30" as="geometry" />
        </mxCell>
        <mxCell id="iaX_U97VyxdjdcJAwhCC-46" value="&lt;font style=&quot;font-size: 18px;&quot;&gt;（压缩后）节点、边&lt;/font&gt;" style="rounded=0;whiteSpace=wrap;html=1;" vertex="1" parent="1">
          <mxGeometry x="190" y="605" width="180" height="35" as="geometry" />
        </mxCell>
        <mxCell id="iaX_U97VyxdjdcJAwhCC-47" value="&lt;font style=&quot;font-size: 18px;&quot;&gt;优化器状态&lt;/font&gt;" style="rounded=0;whiteSpace=wrap;html=1;" vertex="1" parent="1">
          <mxGeometry x="190" y="645.5" width="180" height="35" as="geometry" />
        </mxCell>
        <mxCell id="iaX_U97VyxdjdcJAwhCC-48" value="&lt;font size=&quot;1&quot; style=&quot;&quot;&gt;&lt;b style=&quot;font-size: 21px;&quot;&gt;中间件&lt;/b&gt;&lt;/font&gt;" style="text;html=1;align=center;verticalAlign=middle;whiteSpace=wrap;rounded=0;" vertex="1" parent="1">
          <mxGeometry x="80" y="500" width="80" height="30" as="geometry" />
        </mxCell>
        <mxCell id="iaX_U97VyxdjdcJAwhCC-49" value="&lt;font size=&quot;1&quot; style=&quot;&quot;&gt;&lt;b style=&quot;font-size: 21px;&quot;&gt;硬件&lt;/b&gt;&lt;/font&gt;" style="text;html=1;align=center;verticalAlign=middle;whiteSpace=wrap;rounded=0;" vertex="1" parent="1">
          <mxGeometry x="80" y="537" width="80" height="30" as="geometry" />
        </mxCell>
        <mxCell id="iaX_U97VyxdjdcJAwhCC-50" style="rounded=0;orthogonalLoop=1;jettySize=auto;html=1;exitX=0.5;exitY=1;exitDx=0;exitDy=0;entryX=0.5;entryY=0;entryDx=0;entryDy=0;endArrow=block;endFill=1;" edge="1" parent="1" source="iaX_U97VyxdjdcJAwhCC-18" target="iaX_U97VyxdjdcJAwhCC-31">
          <mxGeometry relative="1" as="geometry" />
        </mxCell>
        <mxCell id="iaX_U97VyxdjdcJAwhCC-51" style="rounded=0;orthogonalLoop=1;jettySize=auto;html=1;entryX=0.5;entryY=0;entryDx=0;entryDy=0;endArrow=block;endFill=1;" edge="1" parent="1" target="iaX_U97VyxdjdcJAwhCC-33">
          <mxGeometry relative="1" as="geometry">
            <mxPoint x="450" y="510" as="sourcePoint" />
          </mxGeometry>
        </mxCell>
        <mxCell id="iaX_U97VyxdjdcJAwhCC-52" value="" style="verticalLabelPosition=bottom;html=1;verticalAlign=top;strokeWidth=1;align=center;outlineConnect=0;dashed=0;outlineConnect=0;shape=mxgraph.aws3d.file;aspect=fixed;strokeColor=#292929;" vertex="1" parent="1">
          <mxGeometry x="671.65" y="415.24" width="34.35" height="78.76" as="geometry" />
        </mxCell>
        <mxCell id="iaX_U97VyxdjdcJAwhCC-53" value="&lt;font color=&quot;#ffffff&quot; style=&quot;font-size: 18px;&quot;&gt;&lt;b style=&quot;background-color: rgb(0, 0, 0);&quot;&gt;BIN&lt;/b&gt;&lt;/font&gt;" style="text;html=1;align=center;verticalAlign=middle;whiteSpace=wrap;rounded=0;" vertex="1" parent="1">
          <mxGeometry x="670.0000000000001" y="440" width="36" height="30" as="geometry" />
        </mxCell>
      </root>
    </mxGraphModel>
  </diagram>
</mxfile>
